<svg viewBox="0 0 24 24" xmlns="http://www.w3.org/2000/svg"><path d="m0 0h24v24h-24z" fill="#fff" opacity="0"/><g fill="#231f20"><path d="m12 8a3 3 0 0 0 -1 5.83 1 1 0 0 0 0 .17v6a1 1 0 0 0 2 0v-6a1 1 0 0 0 0-.17 3 3 0 0 0 -1-5.83z"/><path d="m3.5 11a6.87 6.87 0 0 1 2.64-5.23 1 1 0 1 0 -1.28-1.54 8.84 8.84 0 0 0 -3.36 6.77 8.84 8.84 0 0 0 3.36 6.77 1 1 0 1 0 1.28-1.54 6.87 6.87 0 0 1 -2.64-5.23z"/><path d="m16.64 6.24a1 1 0 0 0 -1.28 1.52 4.28 4.28 0 0 1 1.64 3.24 4.28 4.28 0 0 1 -1.64 3.24 1 1 0 0 0 .64 1.76 1 1 0 0 0 .64-.24 6.2 6.2 0 0 0 2.36-4.76 6.2 6.2 0 0 0 -2.36-4.76z"/><path d="m8.76 6.36a1 1 0 0 0 -1.4-.12 6.2 6.2 0 0 0 -2.36 4.76 6.2 6.2 0 0 0 2.36 4.76 1 1 0 0 0 1.4-.12 1 1 0 0 0 -.12-1.4 4.28 4.28 0 0 1 -1.64-3.24 4.28 4.28 0 0 1 1.64-3.24 1 1 0 0 0 .12-1.4z"/><path d="m19.14 4.23a1 1 0 1 0 -1.28 1.54 6.87 6.87 0 0 1 2.64 5.23 6.87 6.87 0 0 1 -2.64 5.23 1 1 0 0 0 1.28 1.54 8.84 8.84 0 0 0 3.36-6.77 8.84 8.84 0 0 0 -3.36-6.77z"/></g></svg>